<svg width="140" height="97" viewBox="0 0 140 97" fill="none" xmlns="http://www.w3.org/2000/svg">
<path d="M19.6361 34.7922L32.4409 48.5962C32.8427 49.0238 32.9649 49.4107 32.8102 49.7583C32.654 50.1031 32.2848 50.2742 31.7024 50.2742H21.4499C20.7765 50.2742 20.2389 50.0067 19.8371 49.4705L10.0516 37.1381V48.9329C10.0516 49.8275 9.60357 50.2742 8.71028 50.2742H1.33587C0.445288 50.2742 0 49.8275 0 48.9329V0C3.26092 0.670648 5.7521 2.09476 7.47216 4.27368C9.19086 6.45397 10.0516 9.27368 10.0516 12.7342V32.5767L19.5058 21.4499C19.9294 20.9584 20.486 20.7113 21.1784 20.7113H31.0344C31.6128 20.7113 31.9698 20.8797 32.1042 21.2164C32.2373 21.5503 32.1042 21.9413 31.7024 22.3893L19.6361 34.7922Z" fill="#372D25"/>
<path d="M59.1483 25.5064C60.7801 22.2672 63.5632 20.4453 67.4948 20.0434V50.9421C63.5632 50.5403 60.7801 48.7089 59.1483 45.4466C57.8518 47.2794 56.1861 48.7211 54.1524 49.7746C52.1215 50.824 49.8434 51.3494 47.321 51.3494C45.1516 51.3494 43.1627 50.9638 41.3531 50.1927C39.5421 49.4216 37.9835 48.3328 36.6775 46.9237C35.3702 45.5159 34.3588 43.8392 33.642 41.8952C32.9279 39.9511 32.5722 37.8061 32.5722 35.4602C32.5722 33.136 32.9279 31.0073 33.642 29.0741C34.3588 27.1409 35.3702 25.4724 36.6775 24.0673C37.9835 22.6595 39.5421 21.5694 41.3531 20.7983C43.1627 20.0272 45.1516 19.6416 47.321 19.6416C49.8434 19.6416 52.1215 20.1616 54.1524 21.2001C56.1861 22.24 57.8518 23.675 59.1483 25.5064ZM50.4 43.3016C51.7644 43.3016 52.9767 42.9731 54.0384 42.3133C55.0986 41.6549 55.9308 40.7385 56.5363 39.5655C57.1405 38.3926 57.4432 37.0459 57.4432 35.5254C57.4432 34.0089 57.1405 32.6636 56.5363 31.4906C55.9308 30.3177 55.0986 29.4027 54.0384 28.7429C52.9767 28.0804 51.7644 27.7491 50.4 27.7491C49.0384 27.7491 47.8274 28.0804 46.7671 28.7429C45.7055 29.4027 44.8733 30.3177 44.2692 31.4906C43.6637 32.6636 43.3623 34.0089 43.3623 35.5254C43.3623 37.0459 43.6637 38.3926 44.2692 39.5655C44.8733 40.7385 45.7055 41.6549 46.7671 42.3133C47.8274 42.9731 49.0384 43.3016 50.4 43.3016Z" fill="#372D25"/>
<path d="M91.0207 19.6416C93.2105 19.6416 95.2048 20.0272 97.0049 20.7983C98.8037 21.5694 100.357 22.6595 101.664 24.0673C102.97 25.4724 103.98 27.1409 104.694 29.0741C105.411 31.0073 105.769 33.136 105.769 35.4602C105.769 37.8061 105.411 39.9511 104.694 41.8952C103.98 43.8392 102.97 45.5159 101.664 46.9237C100.357 48.3328 98.8037 49.4216 97.0049 50.1927C95.2048 50.9638 93.2105 51.3494 91.0207 51.3494C88.9857 51.3494 87.1081 51.0073 85.3894 50.3231C83.6693 49.6429 82.1719 48.6885 80.8985 47.4613V67.0322C77.6579 66.6956 75.1722 65.3543 73.4426 63.0084C71.7117 60.6624 70.8469 57.3119 70.8469 52.9568V20.0434C74.731 20.8471 77.5005 22.6907 79.1554 25.5715C80.4505 23.7184 82.1149 22.2672 84.1459 21.2164C86.1795 20.167 88.4711 19.6416 91.0207 19.6416ZM87.9362 43.3016C89.3006 43.3016 90.5129 42.9731 91.5746 42.3133C92.6348 41.6549 93.4657 40.7385 94.0671 39.5655C94.6712 38.3926 94.974 37.0459 94.974 35.5254C94.974 34.0089 94.6712 32.6636 94.0671 31.4906C93.4657 30.3177 92.6348 29.4027 91.5746 28.7429C90.5129 28.0804 89.3006 27.7491 87.9362 27.7491C86.5746 27.7491 85.3623 28.0804 84.2979 28.7429C83.2363 29.4027 82.4041 30.3177 81.7999 31.4906C81.1985 32.6636 80.8985 34.0089 80.8985 35.5254C80.8985 37.0459 81.1985 38.3926 81.7999 39.5655C82.4041 40.7385 83.2363 41.6549 84.2979 42.3133C85.3623 42.9731 86.5746 43.3016 87.9362 43.3016Z" fill="#372D25"/>
<path d="M133.117 7.10285C132.758 8.60162 132.142 9.90491 131.27 11.0127C130.397 12.1178 129.37 13.0599 128.186 13.8419C127.002 14.6239 125.75 15.2782 124.433 15.8023C123.115 16.3276 121.83 16.7526 120.578 17.0784C119.329 17.4015 118.212 17.6527 117.227 17.8332L125.004 5.89731C125.249 5.5647 125.456 5.28096 125.623 5.04475C125.788 4.80988 126.073 4.69177 126.475 4.69177H132.242C132.644 4.69177 132.922 4.7773 133.079 4.947C133.237 5.11398 133.317 5.36378 133.317 5.69639C133.317 6.09823 133.25 6.56796 133.117 7.10285ZM123.597 19.6415C125.852 19.6415 127.963 19.9768 129.929 20.6461C131.895 21.3168 133.632 22.2942 135.142 23.5785C136.652 24.8642 137.83 26.4512 138.677 28.3409C139.527 30.228 139.953 32.4001 139.953 34.8574V36.0629C139.953 36.9575 139.505 37.4042 138.612 37.4042H117.026C117.159 39.4392 117.784 41.0778 118.9 42.3186C120.019 43.5568 121.517 44.1758 123.396 44.1758C124.869 44.1758 126.086 43.8744 127.045 43.269C128.008 42.6648 128.691 41.9168 129.093 41.0262C129.269 40.6461 129.47 40.3624 129.695 40.1737C129.919 39.9822 130.209 39.8859 130.564 39.8859H138.009C138.476 39.8859 138.827 40.0257 139.063 40.304C139.298 40.5837 139.326 40.9583 139.15 41.4281C138.364 43.6627 137.216 45.5103 135.707 46.9725C134.2 48.4359 132.419 49.5302 130.363 50.2578C128.311 50.9855 126.054 51.3493 123.597 51.3493C121.048 51.3493 118.718 50.9855 116.608 50.2578C114.497 49.5302 112.682 48.4807 111.162 47.1082C109.641 45.733 108.46 44.0672 107.621 42.1123C106.785 40.1574 106.367 37.9622 106.367 35.5253C106.367 33.1142 106.797 30.9312 107.659 28.9763C108.52 27.0214 109.72 25.3515 111.259 23.9641C112.802 22.578 114.622 21.5123 116.722 20.7656C118.825 20.0162 121.117 19.6415 123.597 19.6415ZM117.162 31.9738H129.294C129.203 30.3665 128.622 29.0496 127.55 28.0205C126.478 26.9929 125.048 26.4783 123.26 26.4783C121.406 26.4783 119.998 26.9929 119.036 28.0205C118.076 29.0496 117.451 30.3665 117.162 31.9738Z" fill="#372D25"/>
<path d="M4.62169 92.1017H5.96841C7.12643 92.1017 8.13784 91.8343 9.00398 91.298C9.87283 90.7591 10.5516 90.0301 11.0404 89.1096C11.5291 88.1905 11.7735 87.1737 11.7735 86.0578C11.7735 84.9174 11.5291 83.8951 11.0404 82.9896C10.5516 82.0814 9.87283 81.3632 9.00398 80.8338C8.13784 80.3016 7.12643 80.0355 5.96841 80.0355H4.62169V92.1017ZM0.190521 75.8759H6.2345C7.67083 75.8759 9.00398 76.1365 10.2312 76.6578C11.4585 77.1764 12.531 77.8946 13.4514 78.8137C14.3705 79.73 15.0833 80.8066 15.591 82.0447C16.1014 83.2828 16.3567 84.6214 16.3567 86.0578C16.3567 87.4954 16.1014 88.8327 15.591 90.0708C15.0833 91.3062 14.3759 92.3828 13.4677 93.3018C12.5581 94.2182 11.4856 94.9364 10.2475 95.4577C9.00941 95.9763 7.67083 96.2342 6.2345 96.2342H0.190521V75.8759Z" fill="#372D25"/>
<path d="M54.3503 86.0251C54.3503 84.9689 54.0692 83.986 53.5086 83.0765C52.9506 82.1682 52.2175 81.4351 51.3093 80.8772C50.4038 80.3165 49.4222 80.0355 48.366 80.0355C47.3261 80.0355 46.3473 80.3165 45.4282 80.8772C44.5118 81.4351 43.7733 82.1682 43.2126 83.0765C42.6547 83.986 42.3763 84.9689 42.3763 86.0251C42.3763 87.065 42.6547 88.0439 43.2126 88.963C43.7733 89.8793 44.5118 90.6219 45.4282 91.1894C46.3473 91.7582 47.3261 92.042 48.366 92.042C49.4222 92.042 50.4038 91.7582 51.3093 91.1894C52.2175 90.6219 52.9506 89.8793 53.5086 88.963C54.0692 88.0439 54.3503 87.065 54.3503 86.0251ZM58.8412 86.0577C58.8412 87.452 58.5601 88.7838 57.9995 90.0545C57.4415 91.3224 56.6799 92.4384 55.7133 93.405C54.7467 94.3716 53.6335 95.1359 52.3736 95.6966C51.1165 96.2532 49.7806 96.5329 48.366 96.5329C46.9677 96.5329 45.6346 96.2532 44.3639 95.6966C43.0959 95.1359 41.9799 94.3716 41.0133 93.405C40.0467 92.4384 39.2824 91.3224 38.7217 90.0545C38.1638 88.7838 37.8855 87.452 37.8855 86.0577C37.8855 84.639 38.1638 83.3018 38.7217 82.0447C39.2824 80.7889 40.0467 79.6771 41.0133 78.7105C41.9799 77.7411 43.0959 76.9768 44.3639 76.4189C45.6346 75.8582 46.9677 75.5771 48.366 75.5771C49.7806 75.5771 51.1165 75.8582 52.3736 76.4189C53.6335 76.9768 54.7467 77.7411 55.7133 78.7105C56.6799 79.6771 57.4415 80.7889 57.9995 82.0447C58.5601 83.3018 58.8412 84.639 58.8412 86.0577Z" fill="#372D25"/>
<path d="M85.6116 87.133V96.2342H81.1207V75.8759H85.6116V84.9771L92.0465 75.8759H97.7973L89.983 86.0578L98.0959 96.2342H92.0465L85.6116 87.133Z" fill="#372D25"/>
<path d="M134.742 86.0251C134.742 84.9689 134.461 83.986 133.9 83.0765C133.342 82.1682 132.609 81.4351 131.701 80.8772C130.795 80.3165 129.813 80.0355 128.757 80.0355C127.717 80.0355 126.739 80.3165 125.819 80.8772C124.903 81.4351 124.165 82.1682 123.604 83.0765C123.046 83.986 122.768 84.9689 122.768 86.0251C122.768 87.065 123.046 88.0439 123.604 88.963C124.165 89.8793 124.903 90.6219 125.819 91.1894C126.739 91.7582 127.717 92.042 128.757 92.042C129.813 92.042 130.795 91.7582 131.701 91.1894C132.609 90.6219 133.342 89.8793 133.9 88.963C134.461 88.0439 134.742 87.065 134.742 86.0251ZM139.232 86.0577C139.232 87.452 138.951 88.7838 138.391 90.0545C137.833 91.3224 137.071 92.4384 136.105 93.405C135.138 94.3716 134.025 95.1359 132.765 95.6966C131.508 96.2532 130.172 96.5329 128.757 96.5329C127.359 96.5329 126.026 96.2532 124.755 95.6966C123.487 95.1359 122.371 94.3716 121.405 93.405C120.438 92.4384 119.674 91.3224 119.113 90.0545C118.555 88.7838 118.277 87.452 118.277 86.0577C118.277 84.639 118.555 83.3018 119.113 82.0447C119.674 80.7889 120.438 79.6771 121.405 78.7105C122.371 77.7411 123.487 76.9768 124.755 76.4189C126.026 75.8582 127.359 75.5771 128.757 75.5771C130.172 75.5771 131.508 75.8582 132.765 76.4189C134.025 76.9768 135.138 77.7411 136.105 78.7105C137.071 79.6771 137.833 80.7889 138.391 82.0447C138.951 83.3018 139.232 84.639 139.232 86.0577Z" fill="#372D25"/>
</svg>
